<svg width="27" height="27" viewBox="0 0 27 27" fill="none" xmlns="http://www.w3.org/2000/svg">
<circle cx="13.0714" cy="13.0714" r="12.0714" stroke="#D34829" stroke-width="2"/>
<path d="M16.884 12.5268H10.4245L12.4016 10.1522C12.494 10.041 12.5385 9.89758 12.5252 9.75356C12.512 9.60954 12.442 9.4767 12.3308 9.38425C12.2196 9.2918 12.0762 9.24733 11.9321 9.26061C11.7881 9.27388 11.6553 9.34383 11.5628 9.45505L8.83962 12.7229C8.8213 12.7489 8.80492 12.7762 8.79061 12.8046C8.79061 12.8318 8.79061 12.8482 8.75248 12.8754C8.72779 12.9379 8.71487 13.0043 8.71436 13.0715C8.71487 13.1386 8.72779 13.2051 8.75248 13.2676C8.75248 13.2948 8.75248 13.3111 8.79061 13.3384C8.80492 13.3668 8.8213 13.3941 8.83962 13.4201L11.5628 16.6879C11.614 16.7494 11.6782 16.7988 11.7507 16.8327C11.8231 16.8666 11.9022 16.8841 11.9822 16.884C12.1095 16.8842 12.2328 16.8399 12.3308 16.7587C12.3859 16.713 12.4315 16.6568 12.4649 16.5935C12.4984 16.5301 12.5189 16.4608 12.5255 16.3894C12.5321 16.3181 12.5245 16.2462 12.5033 16.1778C12.482 16.1093 12.4474 16.0458 12.4016 15.9908L10.4245 13.6161H16.884C17.0284 13.6161 17.167 13.5587 17.2691 13.4566C17.3713 13.3545 17.4286 13.2159 17.4286 13.0715C17.4286 12.927 17.3713 12.7885 17.2691 12.6864C17.167 12.5842 17.0284 12.5268 16.884 12.5268Z" fill="#D34829"/>
</svg>
