<svg width="115" height="115" viewBox="0 0 115 115" fill="none" xmlns="http://www.w3.org/2000/svg">
<g filter="url(#filter0_d)">
<circle cx="57.9288" cy="43.0714" r="13.0714" fill="#D34829"/>
<circle cx="57.9288" cy="43.0714" r="12.0714" stroke="#D34829" stroke-width="2"/>
</g>
<path d="M54.116 42.5268H60.5755L58.5984 40.1522C58.506 40.041 58.4615 39.8976 58.4748 39.7536C58.488 39.6095 58.558 39.4767 58.6692 39.3843C58.7804 39.2918 58.9238 39.2473 59.0679 39.2606C59.2119 39.2739 59.3447 39.3438 59.4372 39.4551L62.1604 42.7229C62.1787 42.7489 62.1951 42.7762 62.2094 42.8046C62.2094 42.8318 62.2094 42.8482 62.2475 42.8754C62.2722 42.9379 62.2851 43.0043 62.2856 43.0715C62.2851 43.1386 62.2722 43.2051 62.2475 43.2676C62.2475 43.2948 62.2475 43.3111 62.2094 43.3384C62.1951 43.3668 62.1787 43.3941 62.1604 43.4201L59.4372 46.6879C59.386 46.7494 59.3218 46.7988 59.2493 46.8327C59.1769 46.8666 59.0978 46.8841 59.0178 46.884C58.8905 46.8842 58.7672 46.8399 58.6692 46.7587C58.6141 46.713 58.5685 46.6568 58.5351 46.5935C58.5016 46.5301 58.4811 46.4608 58.4745 46.3894C58.4679 46.3181 58.4755 46.2462 58.4967 46.1778C58.518 46.1093 58.5526 46.0458 58.5984 45.9908L60.5755 43.6161H54.116C53.9716 43.6161 53.833 43.5587 53.7309 43.4566C53.6287 43.3545 53.5714 43.2159 53.5714 43.0715C53.5714 42.927 53.6287 42.7885 53.7309 42.6864C53.833 42.5842 53.9716 42.5268 54.116 42.5268Z" fill="white"/>
<defs>
<filter id="filter0_d" x="0.857422" y="0" width="114.143" height="114.143" filterUnits="userSpaceOnUse" color-interpolation-filters="sRGB">
<feFlood flood-opacity="0" result="BackgroundImageFix"/>
<feColorMatrix in="SourceAlpha" type="matrix" values="0 0 0 0 0 0 0 0 0 0 0 0 0 0 0 0 0 0 127 0"/>
<feOffset dy="14"/>
<feGaussianBlur stdDeviation="22"/>
<feColorMatrix type="matrix" values="0 0 0 0 0.0561111 0 0 0 0 0.0777333 0 0 0 0 0.133333 0 0 0 0.08 0"/>
<feBlend mode="normal" in2="BackgroundImageFix" result="effect1_dropShadow"/>
<feBlend mode="normal" in="SourceGraphic" in2="effect1_dropShadow" result="shape"/>
</filter>
</defs>
</svg>
