<svg width="43" height="43" viewBox="0 0 43 43" fill="none" xmlns="http://www.w3.org/2000/svg">
<path d="M20.1348 3.52132C20.5307 3.22947 21.0097 3.07202 21.5016 3.07202C21.9934 3.07202 22.4724 3.22947 22.8683 3.52132L37.4546 14.279C39.1807 15.5536 38.3729 18.2381 36.3181 18.4254H6.68499C4.62867 18.2381 3.82242 15.5536 5.54856 14.279L20.1348 3.52132ZM21.5016 13.8198C22.1125 13.8198 22.6984 13.5771 23.1304 13.1451C23.5624 12.7131 23.8051 12.1272 23.8051 11.5162C23.8051 10.9053 23.5624 10.3194 23.1304 9.88737C22.6984 9.45537 22.1125 9.21267 21.5016 9.21267C20.8906 9.21267 20.3047 9.45537 19.8727 9.88737C19.4407 10.3194 19.198 10.9053 19.198 11.5162C19.198 12.1272 19.4407 12.7131 19.8727 13.1451C20.3047 13.5771 20.8906 13.8198 21.5016 13.8198ZM29.948 19.9627H33.7857V27.6412H29.9465V19.9627H29.948ZM19.9658 34.9359C19.9638 33.4222 20.4347 31.9457 21.3127 30.7127H9.60131C8.27759 30.7127 7.0081 31.2385 6.07209 32.1745C5.13608 33.1105 4.61024 34.38 4.61024 35.7037V36.4716C4.61024 37.1089 5.12624 37.6234 5.76202 37.6234H20.4772C20.138 36.7685 19.964 35.8571 19.9643 34.9374L19.9658 34.9359ZM23.0373 28.9881C24.1636 28.186 25.4956 27.7225 26.8766 27.652V19.9627H23.0357V28.9881H23.0373ZM19.9658 29.177V19.9627H16.1266V29.177H19.9658ZM13.0551 19.9627V29.177H9.21585V19.9627H13.0551ZM27.2605 31.4805C26.3441 31.4805 25.4652 31.8446 24.8172 32.4926C24.1692 33.1406 23.8051 34.0195 23.8051 34.9359C23.8051 35.8523 24.1692 36.7312 24.8172 37.3792C25.4652 38.0272 26.3441 38.3912 27.2605 38.3912H28.0283C28.334 38.3912 28.6272 38.5127 28.8433 38.7288C29.0595 38.945 29.1809 39.2381 29.1809 39.5438C29.1809 39.8495 29.0595 40.1426 28.8433 40.3588C28.6272 40.5749 28.334 40.6964 28.0283 40.6964H27.2605C25.7331 40.6964 24.2683 40.0896 23.1883 39.0096C22.1083 37.9296 21.5016 36.4648 21.5016 34.9374C21.5016 33.4101 22.1083 31.9453 23.1883 30.8652C24.2683 29.7852 25.7331 29.1785 27.2605 29.1785H28.0283C28.3338 29.1785 28.6268 29.2998 28.8428 29.5158C29.0588 29.7318 29.1801 30.0248 29.1801 30.3303C29.1801 30.6358 29.0588 30.9287 28.8428 31.1447C28.6268 31.3607 28.3338 31.4821 28.0283 31.4821H27.2605V31.4805ZM26.1072 34.9374C26.1072 34.632 26.2285 34.339 26.4445 34.123C26.6605 33.907 26.9535 33.7856 27.259 33.7856H35.7054C36.0109 33.7856 36.3038 33.907 36.5198 34.123C36.7358 34.339 36.8572 34.632 36.8572 34.9374C36.8572 35.2429 36.7358 35.5359 36.5198 35.7519C36.3038 35.9679 36.0109 36.0892 35.7054 36.0892H27.259C26.9535 36.0892 26.6605 35.9679 26.4445 35.7519C26.2285 35.5359 26.1072 35.2429 26.1072 34.9374ZM35.7054 38.3928C36.6218 38.3928 37.5007 38.0287 38.1487 37.3807C38.7967 36.7327 39.1607 35.8538 39.1607 34.9374C39.1607 34.021 38.7967 33.1421 38.1487 32.4941C37.5007 31.8461 36.6218 31.4821 35.7054 31.4821H34.9375C34.6321 31.4821 34.3391 31.3607 34.1231 31.1447C33.9071 30.9287 33.7857 30.6358 33.7857 30.3303C33.7857 30.0248 33.9071 29.7318 34.1231 29.5158C34.3391 29.2998 34.6321 29.1785 34.9375 29.1785H35.7054C37.2329 29.1785 38.6979 29.7853 39.7781 30.8655C40.8583 31.9456 41.4651 33.4106 41.4651 34.9382C41.4651 36.4658 40.8583 37.9308 39.7781 39.0109C38.6979 40.0911 37.2329 40.6979 35.7054 40.6979H34.9375C34.6321 40.6979 34.3391 40.5765 34.1231 40.3605C33.9071 40.1445 33.7857 39.8516 33.7857 39.5461C33.7857 39.2406 33.9071 38.9477 34.1231 38.7317C34.3391 38.5157 34.6321 38.3943 34.9375 38.3943H35.7054V38.3928Z" fill="#D34829"/>
</svg>
