<svg width="35" height="31" viewBox="0 0 35 31" fill="none" xmlns="http://www.w3.org/2000/svg">
<circle cx="15" cy="15.3721" r="13.5" stroke="#28AA63" stroke-width="3"/>
<g clip-path="url(#clip0)">
<path d="M29.3735 6.44415L28.5195 6.95587L28.5732 7.04642L17.0238 15.9208L13.1735 9.42479C13.1734 9.42475 13.1734 9.42472 13.1734 9.42469C12.7409 8.6948 12.0361 8.16662 11.2141 7.95634C10.3921 7.74605 9.52026 7.87091 8.79032 8.30345C8.06039 8.73599 7.53217 9.44078 7.32188 10.2628C7.11158 11.0848 7.23644 11.9566 7.66898 12.6866L7.6692 12.6869L13.2662 22.1229L13.2665 22.1234C13.486 22.4929 13.7777 22.8144 14.1242 23.0687C14.4707 23.323 14.8649 23.5048 15.2832 23.6033C15.7015 23.7019 16.1354 23.7151 16.559 23.6423C16.9826 23.5694 17.3871 23.4119 17.7484 23.1792L17.7795 23.1593L17.809 23.137L32.7356 11.8863C33.4329 11.4424 33.9319 10.7452 34.1267 9.94039C34.3255 9.11875 34.191 8.25181 33.7526 7.52903L32.9012 8.04547L33.7526 7.52903C33.3141 6.80625 32.6074 6.28642 31.7868 6.08313C30.9663 5.87985 30.0986 6.00964 29.3735 6.44415Z" fill="#28AA63" stroke="white" stroke-width="2"/>
</g>
<defs>
<clipPath id="clip0">
<rect width="23.8835" height="23.8835" fill="white" transform="translate(10.9141 0.248047) rotate(14.3365)"/>
</clipPath>
</defs>
</svg>
