<svg width="18" height="15" viewBox="0 0 18 15" fill="none" xmlns="http://www.w3.org/2000/svg">
<path d="M15.8155 3.27876C16.1945 3.15701 16.5 2.82109 16.5 2.37143C16.5 1.29663 15.5615 0.5 14.5 0.5H3C1.66229 0.5 0.5 1.5012 0.5 2.82857V11.9714C0.5 13.2988 1.66229 14.3 3 14.3H15.4125C16.4931 14.3 17.5 13.5271 17.5 12.4286V5.11429C17.5 4.15412 16.7308 3.44275 15.8155 3.27876ZM14 9.18571C13.6808 9.18571 13.5 8.95891 13.5 8.77143C13.5 8.58394 13.6808 8.35714 14 8.35714C14.3192 8.35714 14.5 8.58394 14.5 8.77143C14.5 8.95891 14.3192 9.18571 14 9.18571Z" stroke="#095E2F"/>
</svg>
